<mxfile host="Electron" modified="2024-08-15T10:27:07.667Z" agent="Mozilla/5.0 (Macintosh; Intel Mac OS X 10_15_7) AppleWebKit/537.36 (KHTML, like Gecko) draw.io/24.6.1 Chrome/124.0.6367.207 Electron/30.0.6 Safari/537.36" etag="wTwwc9PKsFVUF7boIncw" version="24.6.1" type="device">
  <diagram id="3228e29e-7158-1315-38df-8450db1d8a1d" name="Page-1">
    <mxGraphModel dx="1434" dy="907" grid="1" gridSize="10" guides="1" tooltips="1" connect="1" arrows="1" fold="1" page="1" pageScale="1" pageWidth="1169" pageHeight="827" background="none" math="0" shadow="0">
      <root>
        <mxCell id="0" />
        <mxCell id="1" parent="0" />
        <mxCell id="21532" value="" style="ellipse;fillColor=#12AAB5;opacity=60;strokeColor=none;html=1;fontColor=#FFFFFF;" parent="1" vertex="1">
          <mxGeometry x="210" y="100" width="520" height="450" as="geometry" />
        </mxCell>
        <mxCell id="21533" value="" style="ellipse;fillColor=#e85642;opacity=60;strokeColor=none;html=1;fontColor=#FFFFFF;" parent="1" vertex="1">
          <mxGeometry x="510" y="100" width="490" height="450" as="geometry" />
        </mxCell>
        <mxCell id="21534" value="&lt;font style=&quot;font-size: 22px;&quot;&gt;服务发现的targets&lt;/font&gt;" style="text;fontSize=24;align=center;verticalAlign=middle;html=1;fontColor=#FFFFFF;" parent="1" vertex="1">
          <mxGeometry x="370" y="130" width="190" height="70" as="geometry" />
        </mxCell>
        <mxCell id="KkTiWRKwPqwUPZdHzMyR-21540" value="&lt;font style=&quot;font-size: 22px;&quot;&gt;Scrape模块存储的targets&lt;/font&gt;" style="text;fontSize=24;align=center;verticalAlign=middle;html=1;fontColor=#FFFFFF;" parent="1" vertex="1">
          <mxGeometry x="700" y="130" width="190" height="70" as="geometry" />
        </mxCell>
        <mxCell id="KkTiWRKwPqwUPZdHzMyR-21541" value="&lt;font style=&quot;font-size: 22px;&quot;&gt;新加入的targets&lt;/font&gt;" style="text;fontSize=24;align=center;verticalAlign=middle;html=1;fontColor=#FFFFFF;" parent="1" vertex="1">
          <mxGeometry x="310" y="290" width="190" height="70" as="geometry" />
        </mxCell>
        <mxCell id="KkTiWRKwPqwUPZdHzMyR-21542" value="&lt;font style=&quot;font-size: 22px;&quot;&gt;失效的targets&lt;/font&gt;" style="text;fontSize=24;align=center;verticalAlign=middle;html=1;fontColor=#FFFFFF;" parent="1" vertex="1">
          <mxGeometry x="780" y="284.25" width="190" height="70" as="geometry" />
        </mxCell>
        <mxCell id="KkTiWRKwPqwUPZdHzMyR-21543" value="&lt;font style=&quot;font-size: 22px;&quot;&gt;不变的targets&lt;/font&gt;" style="text;fontSize=24;align=center;verticalAlign=middle;html=1;fontColor=#FFFFFF;" parent="1" vertex="1">
          <mxGeometry x="540" y="284.25" width="190" height="70" as="geometry" />
        </mxCell>
      </root>
    </mxGraphModel>
  </diagram>
</mxfile>
